<svg width="35" height="35" viewBox="0 0 35 35" fill="none" xmlns="http://www.w3.org/2000/svg">
<path d="M17.4999 23.4821L12.2062 26.6788C12.0506 26.7556 11.9062 26.7867 11.773 26.7721C11.6408 26.7565 11.512 26.7108 11.3866 26.635C11.2602 26.5572 11.1649 26.4474 11.1008 26.3054C11.0366 26.1635 11.0308 26.0084 11.0833 25.8402L12.492 19.8465L7.83263 15.8069C7.70138 15.6999 7.61485 15.5721 7.57304 15.4233C7.53124 15.2746 7.54047 15.1322 7.60075 14.9961C7.66103 14.8599 7.74124 14.7481 7.84138 14.6606C7.94249 14.5761 8.0786 14.5187 8.24971 14.4886L14.398 13.9519L16.7955 8.27605C16.8617 8.11564 16.9569 7.99994 17.0814 7.92897C17.2058 7.858 17.3453 7.82251 17.4999 7.82251C17.6545 7.82251 17.7945 7.858 17.9199 7.92897C18.0453 7.99994 18.1401 8.11564 18.2043 8.27605L20.6018 13.9519L26.7487 14.4886C26.9207 14.5177 27.0573 14.5756 27.1585 14.6621C27.2596 14.7476 27.3403 14.859 27.4005 14.9961C27.4598 15.1322 27.4686 15.2746 27.4268 15.4233C27.385 15.5721 27.2985 15.6999 27.1672 15.8069L22.5078 19.8465L23.9166 25.8402C23.971 26.0065 23.9657 26.1611 23.9005 26.304C23.8354 26.4469 23.7396 26.5567 23.6133 26.6336C23.4888 26.7113 23.36 26.7575 23.2268 26.7721C23.0946 26.7867 22.9507 26.7556 22.7951 26.6788L17.4999 23.4821Z" fill="#FFCD29"/>
</svg>
